<svg xmlns="http://www.w3.org/2000/svg" viewBox="0 0 670.27 163.92"><defs><style>.cls-1{isolation:isolate;}.cls-2{fill:#fff;}</style></defs><g id="Layer_2" data-name="Layer 2"><g id="svg1"><g id="text50" class="cls-1"><g class="cls-1"><path class="cls-2" d="M179,101.47l24.29-51.89h24.88l24.29,51.89H229.81L227,94.15H203.68l-2.8,7.32Zm29.13-18.93h14.52l-3.19-8.3q-.39-.9-.87-2.19c-.33-.85-.65-1.76-1-2.71s-.65-1.9-1-2.83-.61-1.75-.87-2.45H215q-.39,1.35-1,3.09c-.42,1.16-.86,2.35-1.31,3.58s-.9,2.41-1.35,3.51Z"/><path class="cls-2" d="M255.36,116.32V61.65H271l1.65,5.65h.68a15,15,0,0,1,6.67-5A24.86,24.86,0,0,1,289,60.74,26.92,26.92,0,0,1,300.56,63,16.19,16.19,0,0,1,308,70a24,24,0,0,1,2.56,11.65A23.57,23.57,0,0,1,308,93.17a16.2,16.2,0,0,1-7.41,6.9,26.92,26.92,0,0,1-11.61,2.3,30.5,30.5,0,0,1-5.28-.45,18,18,0,0,1-4.69-1.47,12.93,12.93,0,0,1-3.68-2.6h-.68v18.47Zm27.59-25a10.35,10.35,0,0,0,4.84-1,6,6,0,0,0,2.66-2.72,9.39,9.39,0,0,0,.82-4.07v-4a9.36,9.36,0,0,0-.82-4.07,5.76,5.76,0,0,0-2.66-2.68,10.64,10.64,0,0,0-4.84-.94A9.37,9.37,0,0,0,278.06,73,6.72,6.72,0,0,0,275.3,76a10.27,10.27,0,0,0-.87,4.26v2.49a11,11,0,0,0,.48,3.28,7.76,7.76,0,0,0,1.5,2.72,7.09,7.09,0,0,0,2.67,1.85A10.1,10.1,0,0,0,283,91.29Z"/><path class="cls-2" d="M343.53,102.37a51,51,0,0,1-15.92-2.22,21.3,21.3,0,0,1-10.35-6.83c-2.42-3.06-3.63-7-3.63-11.76a18.34,18.34,0,0,1,3.58-11.62,21.4,21.4,0,0,1,10-6.9,45.1,45.1,0,0,1,15.14-2.3A47.94,47.94,0,0,1,358,63a19.79,19.79,0,0,1,9.83,6.82q3.38,4.6,3.38,11.77v2.56H332.89a10.16,10.16,0,0,0,1,4.68,6.64,6.64,0,0,0,3.29,3,14.9,14.9,0,0,0,6,1,18.33,18.33,0,0,0,4.4-.45,8.76,8.76,0,0,0,2.9-1.24,4.72,4.72,0,0,0,1.6-1.85,5.39,5.39,0,0,0,.48-2.26h18.68a12.11,12.11,0,0,1-1.74,6.41,14.11,14.11,0,0,1-5.23,4.86,29,29,0,0,1-8.66,3.06A61.19,61.19,0,0,1,343.53,102.37ZM333,77h18.78a6.6,6.6,0,0,0-.58-2.83,5.75,5.75,0,0,0-1.69-2.11,7.88,7.88,0,0,0-2.71-1.32,13.46,13.46,0,0,0-3.63-.45,14.88,14.88,0,0,0-5.33.83,7.58,7.58,0,0,0-3.29,2.3A8,8,0,0,0,333,77Z"/><path class="cls-2" d="M370.73,101.47l19.65-21.12-17.72-18.7h22.65l8.13,10.55h.39L412,61.65h21.29l-18,19.08,19.16,20.74H412L402.28,89h-.39l-9.77,12.52Z"/><path class="cls-2" d="M459.38,102.37a45.1,45.1,0,0,1-15.14-2.3,21.23,21.23,0,0,1-10-6.94,18.35,18.35,0,0,1-3.58-11.57,18.52,18.52,0,0,1,3.58-11.66,21.29,21.29,0,0,1,10-6.93,44.83,44.83,0,0,1,15.14-2.31,57.72,57.72,0,0,1,10.94,1,32.06,32.06,0,0,1,9,3,16.21,16.21,0,0,1,6.05,5.28,13.62,13.62,0,0,1,2.18,7.77H468.87a6.34,6.34,0,0,0-1.12-3.85,6.46,6.46,0,0,0-3.24-2.22,16.11,16.11,0,0,0-5.13-.72,12.5,12.5,0,0,0-5.47,1,6.48,6.48,0,0,0-3,2.94,10,10,0,0,0-1,4.56v4.3a9.53,9.53,0,0,0,1,4.53,6.74,6.74,0,0,0,3.2,2.9,13.42,13.42,0,0,0,5.66,1,17.27,17.27,0,0,0,5.37-.72,6.56,6.56,0,0,0,3.34-2.26,6.44,6.44,0,0,0,1.16-4h17.91a13.82,13.82,0,0,1-2.18,7.81,16.13,16.13,0,0,1-6.05,5.32,32.38,32.38,0,0,1-9,3A58.58,58.58,0,0,1,459.38,102.37Z"/><path class="cls-2" d="M520.07,102.37a45.12,45.12,0,0,1-15.15-2.3,21.28,21.28,0,0,1-10-6.94,18.35,18.35,0,0,1-3.58-11.57,18.34,18.34,0,0,1,3.58-11.62,21.51,21.51,0,0,1,10-6.9,51.18,51.18,0,0,1,30.34,0,21.51,21.51,0,0,1,10.07,6.9,18.4,18.4,0,0,1,3.58,11.62,18.41,18.41,0,0,1-3.58,11.57,21.29,21.29,0,0,1-10.07,6.94A45.53,45.53,0,0,1,520.07,102.37Zm0-10.18a12.82,12.82,0,0,0,5.51-1,6.5,6.5,0,0,0,3.1-2.9,9.9,9.9,0,0,0,1-4.53v-4.3a10.12,10.12,0,0,0-1-4.56,6.48,6.48,0,0,0-3.1-2.94,12.82,12.82,0,0,0-5.51-1,12.47,12.47,0,0,0-5.47,1,6.46,6.46,0,0,0-3.05,2.94,10,10,0,0,0-1,4.56v4.3a9.77,9.77,0,0,0,1,4.53,6.47,6.47,0,0,0,3.05,2.9A12.47,12.47,0,0,0,520.07,92.19Z"/><path class="cls-2" d="M573.59,102.37a26.94,26.94,0,0,1-11.62-2.3,16.11,16.11,0,0,1-7.4-6.94A23.83,23.83,0,0,1,552,81.48a23.48,23.48,0,0,1,2.57-11.54A16.23,16.23,0,0,1,562,63a26.94,26.94,0,0,1,11.62-2.3,27.78,27.78,0,0,1,5.27.49,20.07,20.07,0,0,1,4.74,1.51,11.4,11.4,0,0,1,3.63,2.6h.68V46.79h19.26v54.68H591.49l-1.35-5.66h-.68a16,16,0,0,1-6.78,5A25,25,0,0,1,573.59,102.37Zm6-11.08a9.33,9.33,0,0,0,4.88-1.14,6.72,6.72,0,0,0,2.76-3.05,10.2,10.2,0,0,0,.87-4.26V80.35a11,11,0,0,0-.48-3.28,7.46,7.46,0,0,0-1.5-2.72,7,7,0,0,0-2.66-1.84,10,10,0,0,0-3.87-.68,10.2,10.2,0,0,0-4.84,1,5.86,5.86,0,0,0-2.66,2.71,9.43,9.43,0,0,0-.83,4.08v4a9.43,9.43,0,0,0,.83,4.08,5.69,5.69,0,0,0,2.66,2.67A10.6,10.6,0,0,0,579.59,91.29Z"/><path class="cls-2" d="M642.59,102.37a50.94,50.94,0,0,1-15.92-2.22,21.28,21.28,0,0,1-10.36-6.83c-2.42-3.06-3.62-7-3.62-11.76a18.34,18.34,0,0,1,3.58-11.62,21.42,21.42,0,0,1,10-6.9,45.12,45.12,0,0,1,15.15-2.3A47.94,47.94,0,0,1,657.06,63a19.76,19.76,0,0,1,9.82,6.82q3.39,4.6,3.39,11.77v2.56H632a10,10,0,0,0,1,4.68,6.64,6.64,0,0,0,3.29,3,14.88,14.88,0,0,0,6,1,18.41,18.41,0,0,0,4.41-.45,8.76,8.76,0,0,0,2.9-1.24,4.8,4.8,0,0,0,1.6-1.85,5.39,5.39,0,0,0,.48-2.26h18.68a12.11,12.11,0,0,1-1.74,6.41,14.11,14.11,0,0,1-5.23,4.86,29,29,0,0,1-8.66,3.06A61.19,61.19,0,0,1,642.59,102.37ZM632,77h18.78a6.75,6.75,0,0,0-.58-2.83,5.78,5.78,0,0,0-1.7-2.11,7.7,7.7,0,0,0-2.71-1.32,13.35,13.35,0,0,0-3.63-.45,14.82,14.82,0,0,0-5.32.83,7.53,7.53,0,0,0-3.29,2.3A8,8,0,0,0,632,77Z"/></g></g><g id="g36"><g id="g51"><path id="path51" class="cls-2" d="M65.49,0,32.74,32.78,0,65.57,32.74,98.35,65.49,65.57,98.23,98.35,131,65.57,98.23,32.78Z"/></g><g id="g52"><path id="path52" class="cls-2" d="M98.23,98.35H32.74L0,131.13l32.74,32.79,32.75-32.79,32.74,32.79L131,131.13Z"/></g></g></g></g></svg>